<svg width="240" height="73" viewBox="0 0 240 73" fill="none" xmlns="http://www.w3.org/2000/svg">
<path d="M162.244 12.7705H172.511V12.7832H174.442L174.437 12.7705H190.14L199.285 38.3096L209.553 12.7705H224.134L202.517 61.9512C199.756 68.5947 193.303 72.3018 184.675 72.3018H172.511L172.167 60.9521C172.157 60.9401 172.147 60.928 172.137 60.916H161.036C151.977 60.916 147.749 56.1699 147.749 47.1104V25.3672H140.242V12.7705H147.749V3.19336H162.244V12.7705ZM78.1055 11.7354C90.702 11.7354 101.573 19.6728 102.954 32.0107C103.299 34.9442 103.213 38.3966 102.954 41.3301H67.4932C68.96 47.7146 73.8785 50.3027 78.4512 50.3027C82.3337 50.3026 86.3025 48.318 87.5967 44.9531H102.351C100.711 54.703 91.3062 61.9512 78.1055 61.9512C63.3518 61.951 52.4805 51.5969 52.4805 36.8428C52.4807 22.0889 63.4383 11.7355 78.1055 11.7354ZM29.1621 24.5908L42.708 0H58.3252L36.4102 40.208V60.916H21.5703V40.208L0 0H16.6523L29.1621 24.5908ZM127.192 12.7705H137.46V25.3672H127.192V44.8672C127.192 47.3693 128.314 48.3183 130.816 48.3184H137.115V60.916H125.984C116.925 60.9159 112.697 56.1698 112.697 47.1104V25.3672H105.191V12.7705H112.697V3.19336H127.192V12.7705ZM174.586 19.6064C174.235 19.4661 173.415 19.5933 173.049 19.6748C168.745 21.8084 170.386 24.8146 171.697 26.2754C173.009 27.7357 172.724 27.504 172.415 28.085C172.106 28.6662 171.63 28.3884 171.639 28.1289C171.645 27.9199 171 26.4369 170.676 25.7217C169.511 23.589 168.112 24.0734 167.559 24.582C167.681 24.1077 168.206 23.9376 168.453 23.9121C167.631 23.7324 166.892 24.2808 166.625 24.5781C164.993 26.9677 166.31 27.564 167.162 28.7285C167.844 29.6603 169.24 29.9905 169.853 30.0391C169.987 30.0866 170.065 30.3994 169.306 31.2686C168.546 32.1382 168.231 31.3677 168.168 30.874C166.805 27.78 164.863 28.0743 164.062 28.6084C164.084 28.4141 164.439 28.135 164.613 28.0195C163.653 28.2454 163.086 28.8886 162.923 29.1826C162.297 31.1408 163.937 32.2623 164.836 32.5781C165.622 33.3125 168.028 32.3847 167.09 33.7822C166.339 34.9001 165.832 34.5912 165.672 34.2969C163.699 31.5688 162.234 32.5212 161.748 33.3389C161.686 33.1195 161.878 32.7233 161.981 32.5527C160.974 33.4302 160.838 34.0498 160.896 34.25C160.829 36.3618 163.875 36.9682 164.135 36.9424C164.393 36.9164 164.815 37.1108 164.374 37.8691C164.021 38.4756 163.687 38.1747 163.563 37.9482C163.298 37.444 162.436 36.4262 161.107 36.3877C159.778 36.3494 159.329 37.6806 159.271 38.3516C159.679 37.7715 159.812 37.8325 159.827 37.9355C159.292 38.4515 159.473 39.054 159.631 39.291C159.655 38.7789 159.849 38.7591 159.943 38.8135C159.756 40.4452 162.391 40.6681 162.648 40.5732C162.853 40.4973 163.261 40.7662 163.438 40.9102C165.085 45.1267 168.237 44.7611 167.224 44.4492C166.523 44.2336 166.123 43.5619 165.998 43.3086C166.15 43.6461 167.086 43.9831 167.541 44.1104C169.288 44.6464 170.379 45.7267 170.707 46.2002C171.346 47.9218 172.894 49.5163 173.588 50.0986C172.885 48.9329 172.996 48.2618 173.14 48.0723C173.083 48.4477 174.212 50.3249 174.784 51.2168C178.791 56.2016 180.818 55.2861 182.372 55.1992C181.691 55.0976 181.266 54.6781 181.138 54.4805C182.33 54.9797 183.729 54.2373 184.279 53.8037C186.439 51.8081 186.631 49.822 186.456 49.0781C186.639 49.1697 186.753 49.8583 186.787 50.1914C187.414 49.0912 187.069 48.279 186.817 48.0107C187.106 47.9596 187.509 48.5229 187.675 48.8115C188.631 44.7807 183.45 40.2655 180.739 38.5117C180.923 38.3448 181.777 38.8189 182.213 39.0967C182.217 39.0882 182.222 39.0783 182.228 39.0674C182.291 38.9388 181.19 37.5504 180.632 36.8721C178.772 35.0528 178.285 32.9264 178.274 32.0908C178.614 32.3283 178.703 32.8375 178.705 33.0625C179.41 31.8212 179.039 30.307 178.765 29.7051C179.133 29.9691 179.331 30.4462 179.385 30.6523C179.794 29.2688 178.276 27.3402 177.466 26.5488C178.359 19.3794 175.024 19.4131 173.244 20.3262C173.559 19.8177 174.27 19.6344 174.586 19.6064ZM78.4512 23.3828C74.2236 23.3828 69.6509 25.5403 67.8389 30.9756H87.8555C86.6474 25.7129 82.3335 23.3829 78.4512 23.3828ZM230.622 3.92188H228.229V10.4961H226.841V3.92188H224.443V2.74609H230.622V3.92188ZM235.428 8.3584H235.517L237.82 2.74609H239.562V10.4961H238.185V5.16992H238.122L235.969 10.4697H234.96L232.833 5.15918H232.76V10.4961H231.407V2.74609H233.129L235.428 8.3584Z" fill="white"/>
</svg>
