<svg width="240" height="73" viewBox="0 0 240 73" fill="none" xmlns="http://www.w3.org/2000/svg">
<path d="M162.298 12.7744H172.568V12.7871H174.5L174.494 12.7744H190.202L199.352 38.3232L209.622 12.7744H224.208L202.584 61.9727C199.822 68.6186 193.367 72.3271 184.736 72.3271H172.568L172.224 60.9736C172.214 60.9616 172.204 60.9486 172.194 60.9365H161.089C152.027 60.9364 147.798 56.1896 147.798 47.127V25.376H140.289V12.7744H147.798V3.19434H162.298V12.7744ZM78.1318 11.7393C90.7325 11.7394 101.607 19.6801 102.988 32.0225C103.333 34.9568 103.247 38.4093 102.988 41.3438H67.5156C68.9828 47.7306 73.9024 50.3202 78.4766 50.3203C82.3604 50.3203 86.3314 48.3349 87.626 44.9688H102.384C100.744 54.7219 91.3368 61.9725 78.1318 61.9727C63.3732 61.9726 52.498 51.6148 52.498 36.8555C52.4983 22.0964 63.4597 11.7393 78.1318 11.7393ZM29.1719 24.5996L42.7227 0H58.3447L36.4219 40.2217V60.9365H21.5771V40.2217L0 0H16.6572L29.1719 24.5996ZM127.234 12.7744H137.506V25.376H127.234V44.8828C127.234 47.3857 128.357 48.3349 130.859 48.335H137.16V60.9365H126.026C116.964 60.9365 112.735 56.1896 112.735 47.127V25.376H105.227V12.7744H112.735V3.19434H127.234V12.7744ZM174.646 19.6094C174.294 19.4693 173.475 19.5972 173.108 19.6787C168.803 21.813 170.444 24.82 171.756 26.2812C173.068 27.7421 172.783 27.5106 172.475 28.0918C172.166 28.6731 171.688 28.3944 171.697 28.1348C171.703 27.9253 171.057 26.4429 170.733 25.7275C169.568 23.5945 168.17 24.0782 167.616 24.5869C167.739 24.1125 168.264 23.9425 168.511 23.917C167.688 23.7372 166.949 24.2867 166.682 24.584C165.049 26.9742 166.366 27.5705 167.219 28.7354C167.901 29.6673 169.297 29.9972 169.91 30.0459C170.044 30.0933 170.123 30.4058 169.363 31.2754C168.604 32.145 168.288 31.3757 168.226 30.8818C166.862 27.7867 164.919 28.08 164.118 28.6143C164.14 28.42 164.494 28.1408 164.669 28.0254C163.708 28.2515 163.142 28.8955 162.979 29.1895C162.352 31.1479 163.993 32.2689 164.892 32.585C165.678 33.3198 168.085 32.392 167.146 33.79C166.395 34.908 165.888 34.5991 165.729 34.3047C163.755 31.5758 162.289 32.5288 161.803 33.3467C161.74 33.1274 161.932 32.7313 162.036 32.5605C161.028 33.4382 160.893 34.0576 160.951 34.2578C160.884 36.3698 163.93 36.9766 164.19 36.9512C164.449 36.9252 164.871 37.1194 164.43 37.8779C164.077 38.4847 163.742 38.1835 163.619 37.957C163.354 37.4526 162.492 36.434 161.162 36.3955C159.832 36.3572 159.383 37.6903 159.324 38.3613C159.733 37.781 159.867 37.8412 159.882 37.9443C159.346 38.4605 159.527 39.0637 159.685 39.3008C159.709 38.7885 159.904 38.7679 159.998 38.8223C159.811 40.4549 162.448 40.6781 162.704 40.583C162.909 40.5072 163.316 40.776 163.494 40.9199C165.141 45.1372 168.294 44.7719 167.281 44.46C166.58 44.2443 166.179 43.5718 166.054 43.3184C166.205 43.6562 167.144 43.9937 167.599 44.1211C169.346 44.6574 170.438 45.7384 170.766 46.2119C171.405 47.9341 172.953 49.529 173.647 50.1113C172.944 48.9451 173.055 48.2736 173.198 48.084C173.142 48.4595 174.272 50.3373 174.844 51.2295C178.852 56.2154 180.88 55.2999 182.435 55.2129C181.754 55.1112 181.328 54.6919 181.2 54.4941C182.393 54.9932 183.792 54.2511 184.343 53.8174C186.504 51.8209 186.694 49.8337 186.52 49.0898C186.702 49.1805 186.817 49.8696 186.852 50.2031C187.479 49.1027 187.133 48.2908 186.882 48.0225C187.171 47.9713 187.574 48.5356 187.739 48.8242C188.697 44.792 183.513 40.2747 180.801 38.5205C180.984 38.3531 181.839 38.8275 182.275 39.1055C182.279 39.0969 182.284 39.0871 182.29 39.0762C182.353 38.9476 181.253 37.5594 180.694 36.8809C178.834 35.0613 178.347 32.9347 178.336 32.0986C178.676 32.3363 178.765 32.8453 178.767 33.0703C179.472 31.8287 179.1 30.3141 178.826 29.7119C179.194 29.976 179.393 30.4529 179.446 30.6592C179.856 29.2752 178.337 27.3462 177.526 26.5547C178.42 19.3835 175.084 19.4169 173.304 20.3301C173.619 19.8216 174.329 19.6374 174.646 19.6094ZM78.4766 23.3906C74.2478 23.3908 69.6739 25.5493 67.8613 30.9863H87.8848C86.6763 25.7217 82.3603 23.3907 78.4766 23.3906ZM230.698 3.92285H228.306V10.499H226.916V3.92285H224.518V2.74707H230.698V3.92285ZM235.506 8.36133H235.595L237.899 2.74707H239.642V10.499H238.264V5.17188H238.201L236.047 10.4736H235.038L232.91 5.16113H232.837V10.499H231.484V2.74707H233.206L235.506 8.36133Z" fill="#0A1C2E"/>
</svg>
